<svg xmlns="http://www.w3.org/2000/svg" version="1.1" xmlns:xlink="http://www.w3.org/1999/xlink" xmlns:svgjs="http://svgjs.dev/svgjs" width="1500" height="155" viewBox="0 0 1500 155"><g transform="matrix(1,0,0,1,-0.9090909090909918,0.576910747694015)"><svg viewBox="0 0 396 41" data-background-color="#ffffff" preserveAspectRatio="xMidYMid meet" height="155" width="1500" xmlns="http://www.w3.org/2000/svg" xmlns:xlink="http://www.w3.org/1999/xlink"><g id="tight-bounds" transform="matrix(1,0,0,1,0.2400000000000091,-0.1526021977771279)"><svg viewBox="0 0 395.52 41.30520439555427" height="41.30520439555427" width="395.52"><g><svg viewBox="0 0 395.52 41.30520439555427" height="41.30520439555427" width="395.52"><g><svg viewBox="0 0 450.6179856534361 47.05923341860872" height="41.30520439555427" width="395.52"><g transform="matrix(1,0,0,1,0,6.5038448501839845)"><svg viewBox="0 0 395.52 34.05154371824075" height="34.05154371824075" width="395.52"><g id="textblocktransform"><svg viewBox="0 0 395.52 34.05154371824075" height="34.05154371824075" width="395.52" id="textblock"><g><svg viewBox="0 0 395.52 34.05154371824075" height="34.05154371824075" width="395.52"><g transform="matrix(1,0,0,1,0,0)"><svg width="395.52" viewBox="3.49 -35.5 417.94 35.99" height="34.05154371824075" data-palette-color="#111111"><path d="M20.04 0L3.49 0 3.49-35.01 6.64-35.01 6.64-3 20.04-3 20.04 0ZM40.74-6.86L40.74-6.86Q40.74-5.35 40.17-4 39.6-2.66 38.6-1.66 37.6-0.66 36.25-0.09 34.91 0.49 33.4 0.49L33.4 0.49 31.39 0.49Q29.88 0.49 28.54-0.09 27.19-0.66 26.19-1.66 25.19-2.66 24.62-4 24.05-5.35 24.05-6.86L24.05-6.86 24.05-18.14Q24.05-19.65 24.62-21 25.19-22.34 26.19-23.34 27.19-24.34 28.54-24.91 29.88-25.49 31.39-25.49L31.39-25.49 33.4-25.49Q34.91-25.49 36.25-24.91 37.6-24.34 38.6-23.34 39.6-22.34 40.17-21 40.74-19.65 40.74-18.14L40.74-18.14 40.74-12.26 27.05-12.26 27.05-6.69Q27.05-5.79 27.39-4.99 27.73-4.2 28.32-3.61 28.9-3.03 29.7-2.69 30.49-2.34 31.39-2.34L31.39-2.34 33.4-2.34Q34.3-2.34 35.09-2.69 35.89-3.03 36.47-3.61 37.06-4.2 37.4-4.99 37.74-5.79 37.74-6.69L37.74-6.69 37.74-8.35 40.74-7.86 40.74-6.86ZM37.74-14.6L37.74-18.31Q37.74-19.21 37.4-20.01 37.06-20.8 36.47-21.39 35.89-21.97 35.09-22.31 34.3-22.66 33.4-22.66L33.4-22.66 31.39-22.66Q30.49-22.66 29.7-22.31 28.9-21.97 28.32-21.39 27.73-20.8 27.39-20.01 27.05-19.21 27.05-18.31L27.05-18.31 27.05-14.6 37.74-14.6ZM63.45-6.86L63.45-6.86Q63.45-5.35 62.87-4 62.3-2.66 61.3-1.66 60.3-0.66 58.95-0.09 57.61 0.49 56.1 0.49L56.1 0.49 54.1 0.49Q52.58 0.49 51.24-0.09 49.9-0.66 48.9-1.66 47.9-2.66 47.32-4 46.75-5.35 46.75-6.86L46.75-6.86 46.75-18.14Q46.75-19.65 47.32-21 47.9-22.34 48.9-23.34 49.9-24.34 51.24-24.91 52.58-25.49 54.1-25.49L54.1-25.49 56.1-25.49Q57.61-25.49 58.95-24.91 60.3-24.34 61.3-23.34 62.3-22.34 62.87-21 63.45-19.65 63.45-18.14L63.45-18.14 63.45-12.26 49.75-12.26 49.75-6.69Q49.75-5.79 50.09-4.99 50.43-4.2 51.02-3.61 51.61-3.03 52.4-2.69 53.19-2.34 54.1-2.34L54.1-2.34 56.1-2.34Q57-2.34 57.8-2.69 58.59-3.03 59.17-3.61 59.76-4.2 60.1-4.99 60.44-5.79 60.44-6.69L60.44-6.69 60.44-8.35 63.45-7.86 63.45-6.86ZM60.44-14.6L60.44-18.31Q60.44-19.21 60.1-20.01 59.76-20.8 59.17-21.39 58.59-21.97 57.8-22.31 57-22.66 56.1-22.66L56.1-22.66 54.1-22.66Q53.19-22.66 52.4-22.31 51.61-21.97 51.02-21.39 50.43-20.8 50.09-20.01 49.75-19.21 49.75-18.31L49.75-18.31 49.75-14.6 60.44-14.6ZM101.65-22.05L101.65-22.05Q101.65-20.26 100.98-18.7 100.31-17.14 99.14-15.97 97.96-14.79 96.39-14.12 94.81-13.45 93.03-13.45L93.03-13.45 85.1-13.45 85.1 0 81.95 0 81.95-35.01 93.03-35.01Q94.81-35.01 96.39-34.34 97.96-33.67 99.14-32.5 100.31-31.32 100.98-29.75 101.65-28.17 101.65-26.39L101.65-26.39 101.65-22.05ZM98.5-22.05L98.5-26.39Q98.5-27.56 98.06-28.58 97.62-29.59 96.85-30.36 96.08-31.13 95.07-31.57 94.06-32.01 92.89-32.01L92.89-32.01 85.1-32.01 85.1-16.46 92.89-16.46Q94.06-16.46 95.07-16.89 96.08-17.33 96.85-18.09 97.62-18.85 98.06-19.86 98.5-20.87 98.5-22.05L98.5-22.05ZM123.35-6.86L123.35-6.86Q123.35-5.35 122.78-4 122.2-2.66 121.2-1.66 120.2-0.66 118.86-0.09 117.52 0.49 116 0.49L116 0.49 114 0.49Q112.49 0.49 111.14-0.09 109.8-0.66 108.8-1.66 107.8-2.66 107.23-4 106.65-5.35 106.65-6.86L106.65-6.86 106.65-18.14Q106.65-19.65 107.23-21 107.8-22.34 108.8-23.34 109.8-24.34 111.14-24.91 112.49-25.49 114-25.49L114-25.49 116-25.49Q117.52-25.49 118.86-24.91 120.2-24.34 121.2-23.34 122.2-22.34 122.78-21 123.35-19.65 123.35-18.14L123.35-18.14 123.35-6.86ZM120.35-6.69L120.35-18.31Q120.35-19.21 120.01-20.01 119.67-20.8 119.08-21.39 118.49-21.97 117.7-22.31 116.91-22.66 116-22.66L116-22.66 114-22.66Q113.1-22.66 112.3-22.31 111.51-21.97 110.93-21.39 110.34-20.8 110-20.01 109.66-19.21 109.66-18.31L109.66-18.31 109.66-6.69Q109.66-5.79 110-4.99 110.34-4.2 110.93-3.61 111.51-3.03 112.3-2.69 113.1-2.34 114-2.34L114-2.34 116-2.34Q116.91-2.34 117.7-2.69 118.49-3.03 119.08-3.61 119.67-4.2 120.01-4.99 120.35-5.79 120.35-6.69L120.35-6.69ZM145.05 0L128.35 0 128.35-1.34 140.95-22.14 128.84-22.14 128.84-25 145.05-25 145.05-23.66 132.46-2.86 145.05-2.86 145.05 0ZM179.45 0L176.45 0 176.45-18.31Q176.45-19.21 176.11-20.01 175.76-20.8 175.18-21.39 174.59-21.97 173.8-22.31 173-22.66 172.1-22.66L172.1-22.66 170.61-22.66Q169.71-22.66 168.92-22.31 168.12-21.97 167.52-21.39 166.93-20.8 166.58-20.01 166.24-19.21 166.24-18.31L166.24-18.31 166.24 0 163.26 0 163.26-18.31Q163.26-19.21 162.92-20.01 162.58-20.8 161.98-21.39 161.38-21.97 160.59-22.31 159.8-22.66 158.89-22.66L158.89-22.66 157.4-22.66Q156.5-22.66 155.71-22.31 154.91-21.97 154.33-21.39 153.74-20.8 153.4-20.01 153.06-19.21 153.06-18.31L153.06-18.31 153.06 0 150.06 0 150.06-25 151.06-25 152.69-22.46Q153.72-23.85 155.27-24.67 156.82-25.49 158.65-25.49L158.65-25.49 158.89-25.49Q161.02-25.49 162.73-24.44 164.44-23.39 165.36-21.66L165.36-21.66Q165.83-22.51 166.51-23.22 167.19-23.93 168.02-24.43 168.85-24.93 169.83-25.21 170.81-25.49 171.86-25.49L171.86-25.49 172.1-25.49Q173.62-25.49 174.96-24.91 176.3-24.34 177.3-23.34 178.3-22.34 178.88-21 179.45-19.65 179.45-18.14L179.45-18.14 179.45 0ZM202.15 0L201.15 0 199.49-2.49Q198.47-1.15 196.93-0.33 195.39 0.49 193.56 0.49L193.56 0.49 192.8 0.49Q191.29 0.49 189.95-0.09 188.6-0.66 187.6-1.66 186.6-2.66 186.03-4 185.45-5.35 185.45-6.86L185.45-6.86 185.45-7.1Q185.45-8.62 186.03-9.96 186.6-11.3 187.6-12.3 188.6-13.31 189.95-13.88 191.29-14.45 192.8-14.45L192.8-14.45 199.15-14.45 199.15-18.31Q199.15-19.21 198.81-20.01 198.47-20.8 197.88-21.39 197.29-21.97 196.5-22.31 195.71-22.66 194.8-22.66L194.8-22.66 193.05-22.66Q192.14-22.66 191.35-22.31 190.56-21.97 189.97-21.39 189.38-20.8 189.04-20.01 188.7-19.21 188.7-18.31L188.7-18.31 188.7-17.41 185.7-17.9 185.7-18.14Q185.7-19.65 186.27-21 186.85-22.34 187.85-23.34 188.85-24.34 190.19-24.91 191.53-25.49 193.05-25.49L193.05-25.49 194.8-25.49Q196.32-25.49 197.66-24.91 199-24.34 200-23.34 201.01-22.34 201.58-21 202.15-19.65 202.15-18.14L202.15-18.14 202.15 0ZM199.15-6.69L199.15-12.11 192.8-12.11Q191.9-12.11 191.11-11.77 190.31-11.43 189.73-10.83 189.14-10.23 188.8-9.44 188.46-8.64 188.46-7.74L188.46-7.74 188.46-6.69Q188.46-5.79 188.8-4.99 189.14-4.2 189.73-3.61 190.31-3.03 191.11-2.69 191.9-2.34 192.8-2.34L192.8-2.34 194.8-2.34Q195.71-2.34 196.5-2.69 197.29-3.03 197.88-3.61 198.47-4.2 198.81-4.99 199.15-5.79 199.15-6.69L199.15-6.69ZM224.86 0L221.85 0 221.85-18.31Q221.85-19.21 221.51-20.01 221.17-20.8 220.58-21.39 220-21.97 219.2-22.31 218.41-22.66 217.51-22.66L217.51-22.66 215.5-22.66Q214.6-22.66 213.81-22.31 213.01-21.97 212.43-21.39 211.84-20.8 211.5-20.01 211.16-19.21 211.16-18.31L211.16-18.31 211.16 0 208.16 0 208.16-25 209.16-25 210.79-22.46Q211.82-23.85 213.37-24.67 214.92-25.49 216.75-25.49L216.75-25.49 217.51-25.49Q219.02-25.49 220.36-24.91 221.71-24.34 222.71-23.34 223.71-22.34 224.28-21 224.86-19.65 224.86-18.14L224.86-18.14 224.86 0ZM242.7 0L239.97 0Q238.6 0 237.39-0.51 236.18-1.03 235.29-1.93 234.4-2.83 233.87-4.03 233.35-5.22 233.35-6.59L233.35-6.59 233.35-22.14 228.86-22.14 228.86-25 233.35-25 233.35-31.01 236.35-31.49 236.35-25 242.7-25 242.7-22.14 236.35-22.14 236.35-6.45Q236.35-5.69 236.63-5.04 236.91-4.39 237.4-3.91 237.89-3.42 238.55-3.14 239.21-2.86 239.97-2.86L239.97-2.86 242.7-2.86 242.7 0ZM252.46-31.01L248.97-31.01 248.97-35.01 252.46-35.01 252.46-31.01ZM252.22 0L249.22 0 249.22-25 252.22-25 252.22 0ZM269.57-22.14L266.57-22.14Q265.67-22.14 264.87-21.8 264.08-21.46 263.5-20.87 262.91-20.29 262.57-19.49 262.23-18.7 262.23-17.8L262.23-17.8 262.23 0 259.22 0 259.22-25 260.22-25 261.86-22.46Q262.89-23.85 264.44-24.67 265.99-25.49 267.82-25.49L267.82-25.49 269.57-25.49 269.57-22.14ZM305.26-8.11L305.26-8.11Q305.26-6.32 304.59-4.76 303.92-3.2 302.75-2.03 301.58-0.85 300.01-0.18 298.45 0.49 296.67 0.49L296.67 0.49 294.18 0.49Q292.4 0.49 290.82-0.18 289.25-0.85 288.08-2.03 286.9-3.2 286.23-4.76 285.56-6.32 285.56-8.11L285.56-8.11 285.56-26.9Q285.56-28.69 286.23-30.25 286.9-31.81 288.08-32.98 289.25-34.16 290.82-34.83 292.4-35.5 294.18-35.5L294.18-35.5 296.67-35.5Q298.45-35.5 300.01-34.83 301.58-34.16 302.75-32.98 303.92-31.81 304.59-30.25 305.26-28.69 305.26-26.9L305.26-26.9 305.26-25.49 302.11-25 302.11-26.9Q302.11-28.08 301.67-29.09 301.23-30.1 300.48-30.86 299.72-31.62 298.71-32.06 297.69-32.5 296.52-32.5L296.52-32.5 294.33-32.5Q293.15-32.5 292.14-32.06 291.13-31.62 290.36-30.86 289.59-30.1 289.15-29.09 288.71-28.08 288.71-26.9L288.71-26.9 288.71-8.11Q288.71-6.93 289.15-5.92 289.59-4.91 290.36-4.14 291.13-3.37 292.14-2.93 293.15-2.49 294.33-2.49L294.33-2.49 296.52-2.49Q297.69-2.49 298.71-2.93 299.72-3.37 300.48-4.14 301.23-4.91 301.67-5.92 302.11-6.93 302.11-8.11L302.11-8.11 302.11-10.01 305.26-9.5 305.26-8.11ZM327.97-6.86L327.97-6.86Q327.97-5.35 327.39-4 326.82-2.66 325.82-1.66 324.82-0.66 323.47-0.09 322.13 0.49 320.62 0.49L320.62 0.49 318.61 0.49Q317.1 0.49 315.76-0.09 314.42-0.66 313.41-1.66 312.41-2.66 311.84-4 311.27-5.35 311.27-6.86L311.27-6.86 311.27-18.14Q311.27-19.65 311.84-21 312.41-22.34 313.41-23.34 314.42-24.34 315.76-24.91 317.1-25.49 318.61-25.49L318.61-25.49 320.62-25.49Q322.13-25.49 323.47-24.91 324.82-24.34 325.82-23.34 326.82-22.34 327.39-21 327.97-19.65 327.97-18.14L327.97-18.14 327.97-6.86ZM324.96-6.69L324.96-18.31Q324.96-19.21 324.62-20.01 324.28-20.8 323.69-21.39 323.11-21.97 322.31-22.31 321.52-22.66 320.62-22.66L320.62-22.66 318.61-22.66Q317.71-22.66 316.92-22.31 316.12-21.97 315.54-21.39 314.95-20.8 314.61-20.01 314.27-19.21 314.27-18.31L314.27-18.31 314.27-6.69Q314.27-5.79 314.61-4.99 314.95-4.2 315.54-3.61 316.12-3.03 316.92-2.69 317.71-2.34 318.61-2.34L318.61-2.34 320.62-2.34Q321.52-2.34 322.31-2.69 323.11-3.03 323.69-3.61 324.28-4.2 324.62-4.99 324.96-5.79 324.96-6.69L324.96-6.69ZM350.67 0L347.67 0 347.67-18.31Q347.67-19.21 347.32-20.01 346.98-20.8 346.4-21.39 345.81-21.97 345.02-22.31 344.22-22.66 343.32-22.66L343.32-22.66 341.32-22.66Q340.41-22.66 339.62-22.31 338.83-21.97 338.24-21.39 337.66-20.8 337.31-20.01 336.97-19.21 336.97-18.31L336.97-18.31 336.97 0 333.97 0 333.97-25 334.97-25 336.61-22.46Q337.63-23.85 339.18-24.67 340.73-25.49 342.56-25.49L342.56-25.49 343.32-25.49Q344.83-25.49 346.18-24.91 347.52-24.34 348.52-23.34 349.52-22.34 350.09-21 350.67-19.65 350.67-18.14L350.67-18.14 350.67 0ZM368.02-32.15L365.27-32.15Q364.51-32.15 363.86-31.87 363.21-31.59 362.73-31.1 362.24-30.62 361.96-29.96 361.68-29.3 361.68-28.54L361.68-28.54 361.68-25 367.51-25 367.51-22.14 361.68-22.14 361.68 0 358.67 0 358.67-22.14 354.16-22.14 354.16-25 358.67-25 358.67-28.39Q358.67-29.76 359.19-30.97 359.7-32.18 360.6-33.08 361.51-33.98 362.7-34.5 363.9-35.01 365.27-35.01L365.27-35.01 368.02-35.01 368.02-32.15ZM375.27-31.01L371.78-31.01 371.78-35.01 375.27-35.01 375.27-31.01ZM375.03 0L372.03 0 372.03-25 375.03-25 375.03 0ZM398.73 0L395.73 0 395.73-18.31Q395.73-19.21 395.39-20.01 395.05-20.8 394.46-21.39 393.87-21.97 393.08-22.31 392.29-22.66 391.38-22.66L391.38-22.66 389.38-22.66Q388.48-22.66 387.68-22.31 386.89-21.97 386.31-21.39 385.72-20.8 385.38-20.01 385.04-19.21 385.04-18.31L385.04-18.31 385.04 0 382.03 0 382.03-25 383.03-25 384.67-22.46Q385.69-23.85 387.24-24.67 388.8-25.49 390.63-25.49L390.63-25.49 391.38-25.49Q392.9-25.49 394.24-24.91 395.58-24.34 396.58-23.34 397.58-22.34 398.16-21 398.73-19.65 398.73-18.14L398.73-18.14 398.73 0ZM421.43-6.86L421.43-6.86Q421.43-5.35 420.86-4 420.29-2.66 419.29-1.66 418.28-0.66 416.94-0.09 415.6 0.49 414.09 0.49L414.09 0.49 412.08 0.49Q410.57 0.49 409.23-0.09 407.88-0.66 406.88-1.66 405.88-2.66 405.31-4 404.74-5.35 404.74-6.86L404.74-6.86 404.74-18.14Q404.74-19.65 405.31-21 405.88-22.34 406.88-23.34 407.88-24.34 409.23-24.91 410.57-25.49 412.08-25.49L412.08-25.49 414.09-25.49Q415.6-25.49 416.94-24.91 418.28-24.34 419.29-23.34 420.29-22.34 420.86-21 421.43-19.65 421.43-18.14L421.43-18.14 421.43-6.86ZM418.43-6.69L418.43-18.31Q418.43-19.21 418.09-20.01 417.75-20.8 417.16-21.39 416.58-21.97 415.78-22.31 414.99-22.66 414.09-22.66L414.09-22.66 412.08-22.66Q411.18-22.66 410.39-22.31 409.59-21.97 409.01-21.39 408.42-20.8 408.08-20.01 407.74-19.21 407.74-18.31L407.74-18.31 407.74-6.69Q407.74-5.79 408.08-4.99 408.42-4.2 409.01-3.61 409.59-3.03 410.39-2.69 411.18-2.34 412.08-2.34L412.08-2.34 414.09-2.34Q414.99-2.34 415.78-2.69 416.58-3.03 417.16-3.61 417.75-4.2 418.09-4.99 418.43-5.79 418.43-6.69L418.43-6.69Z" opacity="1" transform="matrix(1,0,0,1,0,0)" fill="#111111" class="wordmark-text-0" data-fill-palette-color="primary" id="text-0"></path></svg></g></svg></g></svg></g></svg></g><g transform="matrix(1,0,0,1,403.5587522348274,0)"><svg viewBox="0 0 47.05923341860872 47.05923341860872" height="47.05923341860872" width="47.05923341860872"><g data-palette-color="#fe6d98"><rect width="12.862857134419718" height="47.05923341860872" fill="#fe6d98" stroke="transparent" data-fill-palette-color="accent" x="0" fill-opacity="1"></rect><rect width="12.862857134419718" height="47.05923341860872" fill="#fe6d98" stroke="transparent" data-fill-palette-color="accent" x="15.68641113953624" fill-opacity="0.75"></rect><rect width="12.862857134419718" height="47.05923341860872" fill="#fe6d98" stroke="transparent" data-fill-palette-color="accent" x="31.37282227907248" fill-opacity="0.5"></rect></g></svg></g></svg></g></svg></g><defs></defs></svg><rect width="395.52" height="41.30520439555427" fill="none" stroke="none" visibility="hidden"></rect></g></svg></g></svg>